<?xml version="1.0" encoding="UTF-8"?>
<svg xmlns:xlink="http://www.w3.org/1999/xlink" width="13.1px" height="15px" viewBox="0 0 13.1 15" version="1.1"
     xmlns="http://www.w3.org/2000/svg">
    <title>Cart</title>
    <g id="Cart" stroke="none" stroke-width="1" fill="none" fill-rule="evenodd">
        <path d="M12,12.9 C12,13.5 11.5,14 10.9,14 L2.1,14 C1.5,14 1,13.5 1,12.9 L1,5 C1,4.5 1.5,4 2.1,4 L11,4 C11.6,4 12.1,4.5 12.1,5.1 L12.1,12.9 L12,12.9 Z M6.5,1 C7.7,1 8.6,1.9 8.8,3 L4.2,3 C4.4,1.9 5.3,1 6.5,1 Z M10.9,3 L9.8,3 C9.6,1.3 8.2,0 6.5,0 C4.8,0 3.4,1.3 3.2,3 L2.1,3 C0.9,3 0,3.9 0,5.1 L0,13 C0,14.1 0.9,15 2.1,15 L11,15 C12.1,15 13.1,14.1 13.1,12.9 L13.1,5 C13,3.9 12.1,3 10.9,3 L10.9,3 Z"
              id="Shape" fill="#000000" fill-rule="nonzero"></path>
    </g>
</svg>
