<?xml version="1.0" encoding="UTF-8"?>
<svg xmlns:xlink="http://www.w3.org/1999/xlink" width="544.01078px" height="336.989492px"
     viewBox="0 0 544.01078 336.989492" version="1.1" xmlns="http://www.w3.org/2000/svg">
    <title>Logo</title>
    <g id="Logo" stroke="none" stroke-width="1" fill="none" fill-rule="evenodd">
        <g id="#fc1f14ff" transform="translate(0.000000, 0.000000)" fill="#FC1F14" fill-rule="nonzero">
            <path d="M74.3593416,0.854566044 C85.6593416,-3.81543396 93.7293416,11.824566 84.8693416,19.464566 C90.4993416,33.514566 97.7293416,47.904566 109.619342,57.764566 C117.899342,49.034566 118.459342,36.324566 117.999342,24.984566 C109.249342,21.254566 112.089342,6.40456604 121.849342,7.14456604 C130.429342,6.63456604 133.729342,18.244566 127.779342,23.554566 C130.029342,33.084566 134.589342,42.714566 141.939342,49.434566 C143.149342,49.414566 144.349342,49.404566 145.559342,49.384566 C151.489342,43.184566 150.069342,33.654566 151.319342,25.784566 C142.669342,21.224566 144.839342,6.97456604 154.939342,6.44456604 C165.909342,5.47456604 169.579342,21.614566 159.429342,26.004566 C160.819342,48.864566 160.069342,71.984566 154.869342,94.364566 C118.749342,75.424566 69.9693416,87.704566 47.8493416,122.154566 C32.3893416,103.294566 20.5393416,81.664566 11.6293416,59.014566 C1.69934157,59.114566 -4.73065843,45.894566 4.36934157,39.884566 C14.3493416,33.404566 24.2093416,46.184566 19.0393416,55.684566 C23.9493416,62.574566 29.7793416,69.494566 38.2093416,71.984566 C39.6293416,62.044566 38.2293416,52.054566 37.6993416,42.114566 C30.5293416,39.364566 28.8493416,28.134566 36.4093416,24.874566 C44.9193416,20.574566 52.7393416,31.894566 46.9893416,39.004566 C51.8493416,50.184566 62.4693416,57.534566 73.5993416,61.634566 C79.2693416,48.894566 78.0693416,34.554566 75.6993416,21.184566 C66.3293416,18.584566 64.7493416,4.27456604 74.3593416,0.854566044 Z"
                  id="Path"></path>
            <path d="M265.999342,24.644566 C285.349342,4.75456604 320.749342,8.32456604 334.359342,32.994566 C344.979342,36.084566 356.589342,42.014566 360.449342,53.124566 C382.629342,52.324566 403.879342,70.144566 406.039342,92.404566 C410.719342,94.724566 415.129342,97.554566 419.469342,100.454566 C459.819342,73.144566 520.399342,93.354566 537.809342,138.384566 C550.109342,166.684566 543.669342,201.624566 522.419342,223.914566 C495.999342,253.294566 446.769342,259.904566 414.609342,236.344566 C398.899342,244.054566 382.569342,251.694566 364.919342,253.344566 C345.959342,253.724566 327.079342,247.454566 311.779342,236.314566 C292.169342,255.344566 258.209342,255.604566 238.809342,236.154566 C217.619342,257.224566 182.899342,254.224566 159.069342,239.464566 C120.909342,262.894566 66.0893416,247.124566 46.1993416,207.054566 C28.8893416,175.694566 36.4193416,133.504566 63.3393416,109.934566 C87.7893416,86.584566 126.619342,82.414566 156.389342,97.664566 C164.509342,91.314566 174.329342,87.524566 184.419342,85.714566 C188.159342,64.964566 208.229342,50.124566 229.049342,51.304566 C232.879342,34.184566 251.679342,29.214566 265.999342,24.644566 M276.229342,26.794566 C268.269342,36.404566 254.579342,34.204566 245.139342,41.644566 C238.539342,45.264566 237.269342,53.044566 234.429342,59.324566 C213.509342,56.184566 191.869342,71.154566 191.439342,93.144566 C178.779342,94.034566 166.289342,98.764566 156.969342,107.524566 C135.809342,94.344566 107.799342,92.804566 85.5093416,104.104566 C59.5493416,116.674566 42.6793416,145.744566 45.3293416,174.564566 C46.6193416,207.724566 74.1393416,237.034566 106.859342,241.454566 C125.139342,244.294566 144.239342,239.904566 159.629342,229.684566 C182.459342,247.554566 219.949342,249.134566 238.929342,224.774566 C255.779342,247.864566 294.079342,248.554566 310.929342,225.144566 C325.779342,238.574566 345.889342,245.924566 365.889342,245.144566 C383.449342,242.784566 399.839342,235.214566 415.119342,226.554566 C439.679342,247.994566 479.029342,246.924566 505.039342,228.614566 C540.739342,205.044566 546.409342,149.414566 515.969342,119.274566 C491.659342,92.714566 447.519342,88.424566 418.889342,110.514566 C412.669342,104.964566 405.369342,100.854566 397.909342,97.234566 C399.189342,74.624566 375.649342,57.954566 354.389342,61.184566 C353.019342,49.154566 341.169342,42.364566 330.259342,40.564566 C320.039342,21.304566 294.249342,12.384566 276.229342,26.794566 Z"
                  id="Shape"></path>
            <path d="M281.639342,48.244566 C285.649342,38.774566 300.869342,39.434566 303.589342,49.654566 C304.449342,62.504566 303.669342,75.454566 303.969342,88.344566 C322.359342,88.184566 340.609342,85.804566 358.789342,83.354566 C366.139342,81.844566 373.959342,88.584566 372.599342,96.164566 C372.659342,103.694566 364.059342,106.474566 357.849342,107.304566 C340.069342,110.814566 321.959342,111.584566 303.919342,112.494566 C303.779342,143.434566 304.289342,174.404566 303.699342,205.324566 C300.979342,218.264566 280.179342,215.724566 280.719342,202.424566 C280.499342,172.124566 280.719342,141.804566 280.609342,111.504566 C278.469342,111.454566 276.329342,111.424566 274.199342,111.404566 C275.069342,141.974566 274.989342,172.704566 274.389342,203.294566 C273.899342,216.874566 252.569342,217.474566 251.109342,204.074566 C250.319342,172.694566 251.069342,141.224566 250.749342,109.804566 C238.349342,109.244566 225.299342,108.114566 214.229342,102.084566 C205.499342,96.264566 210.539342,81.354566 220.819342,81.454566 C230.819342,82.724566 240.769342,84.554566 250.799342,85.624566 C251.729342,76.614566 247.839342,65.034566 255.759342,58.304566 C262.559342,52.434566 273.709342,57.844566 274.519342,66.444566 C274.939342,73.694566 273.819342,81.054566 274.799342,88.314566 C276.739342,88.324566 278.689342,88.344566 280.639342,88.364566 C281.189342,75.014566 279.439342,61.454566 281.639342,48.244566 Z"
                  id="Path"></path>
            <path d="M70.4093416,143.914566 C80.9593416,124.804566 106.099342,112.874566 127.029342,121.074566 C137.439342,127.264566 132.349342,145.354566 119.929342,144.534566 C108.489342,142.404566 95.7093416,147.804566 91.6293416,159.194566 C84.8893416,173.704566 96.7593416,192.414566 112.769342,192.424566 C126.649342,193.964566 139.419342,181.264566 138.539342,167.454566 C138.159342,138.864566 166.669342,114.164566 194.909342,118.974566 C219.159342,121.814566 239.199342,144.854566 237.919342,169.374566 C238.249342,196.194566 213.009342,219.714566 186.389342,218.014566 C174.679342,217.184566 163.439342,212.204566 154.409342,204.794566 C160.639342,197.754566 164.799342,189.214566 167.259342,180.194566 C177.199342,198.214566 206.779342,197.374566 213.579342,177.194566 C219.279342,162.504566 208.929342,144.074566 192.799342,143.124566 C177.269342,140.754566 162.399342,154.874566 163.649342,170.474566 C162.929342,201.584566 129.089342,225.984566 99.4393416,215.934566 C69.9093416,207.984566 54.1193416,170.154566 70.4093416,143.914566 Z"
                  id="Path"></path>
            <path d="M361.179342,118.654566 C392.669342,113.924566 422.639342,145.214566 416.149342,176.474566 C412.879342,197.414566 394.909342,215.074566 373.829342,217.654566 C347.719342,222.174566 320.669342,201.684566 317.549342,175.424566 C312.769342,148.614566 334.239342,121.284566 361.179342,118.654566 M363.209342,142.784566 C349.869342,144.204566 339.389342,157.674566 341.279342,170.984566 C342.239342,185.024566 356.339342,196.014566 370.189342,193.844566 C385.739342,192.554566 396.549342,175.234566 391.629342,160.554566 C388.129342,148.714566 375.419342,140.694566 363.209342,142.784566 Z"
                  id="Shape"></path>
            <path d="M368.479342,262.014566 C374.249342,260.914566 379.929342,257.494566 385.919342,258.954566 C388.939342,266.744566 383.479342,273.994566 378.909342,279.814566 C378.889342,280.484566 378.859342,281.834566 378.839342,282.504566 C380.929342,282.074566 383.029342,281.594566 385.139342,281.194566 C386.079342,282.284566 387.039342,283.384566 388.009342,284.474566 C387.989342,292.044566 383.759342,298.654566 379.639342,304.684566 C383.409342,308.234566 388.419342,307.064566 391.559342,303.354566 C392.569342,290.594566 410.679342,274.044566 421.809342,285.704566 C425.379342,283.994566 428.829342,281.954566 432.689342,280.934566 C431.919342,290.604566 423.309342,300.504566 427.849342,309.904566 C431.489342,308.124566 434.589342,305.504566 437.529342,302.744566 C442.099342,285.274566 445.349342,258.004566 468.529342,257.954566 C475.059342,264.824566 467.689342,274.054566 463.079342,279.824566 C463.009342,280.504566 462.879342,281.864566 462.809342,282.554566 C464.959342,282.134566 467.099342,281.654566 469.249342,281.214566 C470.139342,282.064566 471.029342,282.914566 471.939342,283.764566 C472.879342,291.774566 467.609342,298.254566 464.349342,305.044566 C468.069342,308.364566 472.739342,306.714566 475.679342,303.324566 C477.179342,296.474566 480.099342,290.084566 482.659342,283.594566 C486.949342,283.004566 491.189342,282.054566 495.479342,281.384566 C492.129342,290.704566 485.909342,299.544566 486.869342,309.884566 C499.369342,309.054566 500.689342,292.634566 505.499342,283.594566 C509.519342,282.944566 513.489342,282.054566 517.509342,281.374566 C514.209342,291.914566 509.999342,302.154566 506.729342,312.704566 C512.549342,310.434566 517.619342,306.714566 522.189342,302.514566 C522.269342,304.064566 522.349342,305.624566 522.429342,307.184566 C517.339342,311.814566 511.009342,314.624566 504.909342,317.634566 C501.869342,327.634566 491.669342,342.344566 479.919342,335.014566 C476.739342,325.584566 486.789342,319.594566 494.229342,316.864566 C495.249342,314.684566 495.889342,312.354566 496.499342,310.034566 C490.639342,316.194566 477.009342,320.894566 475.449342,308.624566 C471.179342,310.964566 466.069342,310.674566 462.249342,307.584566 C456.489342,316.284566 439.809342,322.704566 437.029342,308.204566 C431.309342,316.624566 414.539342,322.414566 415.529342,306.704566 C410.819342,316.434566 394.649342,322.664566 391.329342,308.494566 C386.999342,311.244566 382.279342,310.164566 377.849342,308.424566 C372.499342,311.564566 368.099342,318.124566 360.999342,317.204566 C354.069342,316.174566 351.759342,307.954566 353.229342,301.934566 C355.939342,287.914566 361.109342,274.264566 368.479342,262.014566 M370.679342,282.994566 C376.689342,278.044566 383.019342,271.154566 382.699342,262.844566 C374.329342,264.704566 372.259342,275.714566 370.679342,282.994566 M462.749342,263.884566 C458.959342,269.704566 455.969342,276.114566 454.599342,282.954566 C460.989342,278.424566 467.199342,271.254566 466.849342,262.964566 C465.469342,263.244566 464.109342,263.564566 462.749342,263.884566 M366.739342,291.934566 C365.709342,297.704566 362.349342,304.014566 365.909342,309.554566 C380.739342,309.974566 370.109342,292.054566 376.839342,283.944566 C372.549342,285.234566 369.959342,289.114566 366.739342,291.934566 M450.209342,309.484566 C454.279342,310.324566 457.369342,307.744566 459.889342,304.904566 C455.409342,298.164566 459.309342,290.724566 461.109342,283.894566 C451.189342,287.454566 446.129342,300.204566 450.209342,309.484566 M412.149342,285.624566 C405.439342,290.074566 401.449342,299.844566 403.589342,307.634566 C413.689342,314.624566 425.559342,284.394566 412.149342,285.624566 M482.999342,333.804566 C489.599342,334.504566 491.559342,326.994566 493.109342,322.084566 C487.299342,322.474566 481.669342,327.624566 482.999342,333.804566 Z"
                  id="Shape"></path>
        </g>
        <g id="#fc2014ff" transform="translate(428.783120, 122.319681)" fill="#FC2014" fill-rule="nonzero">
            <path d="M0.206221982,11.0948848 C0.816221982,-1.68511518 19.126222,-4.21511518 23.476222,7.67488482 C40.596222,-1.70511518 63.626222,3.28488482 75.646222,18.5548848 C90.756222,38.2448848 90.156222,67.6348848 75.106222,87.1948848 C67.536222,97.8948848 48.956222,87.2348848 55.266222,75.3948848 C63.216222,65.2548848 66.316222,51.3948848 62.026222,39.0548848 C56.576222,22.7948848 27.746222,22.0848848 23.866222,39.9148848 C21.966222,54.4748848 23.906222,69.3348848 22.926222,83.9848848 C19.876222,94.3048848 2.95622198,93.7348848 0.956221982,83.0548848 C0.726221982,59.0748848 -0.473778018,35.0848848 0.206221982,11.0948848 Z"
                  id="Path"></path>
        </g>
    </g>
</svg>
