<?xml version="1.0" encoding="UTF-8"?>
<svg width="13px" height="13px" viewBox="0 0 13 13" version="1.1" xmlns="http://www.w3.org/2000/svg" xmlns:xlink="http://www.w3.org/1999/xlink">
    <title>Shape</title>
    <g id="Menu" stroke="none" stroke-width="1" fill="none" fill-rule="evenodd">
        <g transform="translate(-68.000000, -113.000000)" fill="#86868B" fill-rule="nonzero" id="Header">
            <g transform="translate(0.000000, 94.000000)">
                <path d="M80.8424727,31.0819229 L77.4209761,27.6604262 C79.206773,25.4695855 78.9622272,22.2635519 76.8648029,20.3689107 C74.7673787,18.4742695 71.5530673,18.5558548 69.5544611,20.5544611 C67.5558548,22.5530673 67.4742695,25.7673787 69.3689107,27.8648029 C71.2635519,29.9622272 74.4695855,30.206773 76.6604262,28.4209761 L80.0819229,31.8424727 C80.217782,31.9783319 80.415801,32.0313909 80.6013881,31.981663 C80.7869751,31.9319351 80.9319351,31.7869751 80.981663,31.6013881 C81.0313909,31.415801 80.9783319,31.217782 80.8424727,31.0819229 Z M69.0910981,24.3151801 C69.0927175,21.9837463 70.9837446,20.094907 73.3151787,20.095986 C75.6466129,20.0970658 77.5358901,21.9876554 77.5353508,24.3190897 C77.5348113,26.650524 75.6446593,28.5402397 73.313225,28.5402397 C70.9811579,28.5380819 69.0916366,26.6472481 69.0910981,24.3151801 Z" id="Shape"></path>
            </g>
        </g>
    </g>
</svg>